<?xml version="1.0" encoding="utf-8"?>
<!-- Generator: Adobe Illustrator 16.0.0, SVG Export Plug-In . SVG Version: 6.00 Build 0)  -->
<!DOCTYPE svg PUBLIC "-//W3C//DTD SVG 1.1//EN" "http://www.w3.org/Graphics/SVG/1.1/DTD/svg11.dtd">
<svg version="1.1" id="Layer_1" xmlns="http://www.w3.org/2000/svg" xmlns:xlink="http://www.w3.org/1999/xlink" x="0px" y="0px"
	 width="29px" height="29px" viewBox="0 0 29 29" enable-background="new 0 0 29 29" xml:space="preserve">
<title>Shape</title>
<desc>Created with Sketch.</desc>
<path fill="#F7F7F6" d="M14.5,0C6.492,0,0,6.492,0,14.5C0,22.508,6.492,29,14.5,29C22.508,29,29,22.508,29,14.5
	C29,6.492,22.508,0,14.5,0z M8.282,14.968c0-2.199,3.982-7.242,3.982-7.242s0.658,0.835,1.437,1.969
	c-1.475,2.087-3.562,5.387-3.562,7.355c0,0.48,0.066,0.944,0.179,1.392C9.104,17.759,8.282,16.46,8.282,14.968z M15.98,21.274
	c-2.615,0-4.736-2.12-4.736-4.736s4.736-8.614,4.736-8.614s4.737,5.998,4.737,8.614S18.597,21.274,15.98,21.274z"/>
</svg>
