<?xml version="1.0" encoding="utf-8"?>
<!-- Generator: Adobe Illustrator 16.0.0, SVG Export Plug-In . SVG Version: 6.00 Build 0)  -->
<!DOCTYPE svg PUBLIC "-//W3C//DTD SVG 1.1//EN" "http://www.w3.org/Graphics/SVG/1.1/DTD/svg11.dtd">
<svg version="1.1" id="Layer_1" xmlns="http://www.w3.org/2000/svg" xmlns:xlink="http://www.w3.org/1999/xlink" x="0px" y="0px"
	 width="74px" height="74px" viewBox="0 0 74 74" enable-background="new 0 0 74 74" xml:space="preserve">
<filter  width="151.8%" height="151.8%" id="filter-1" filterUnits="objectBoundingBox" y="-22.3%" x="-25.9%">
	<feOffset  result="shadowOffsetOuter1" in="SourceAlpha" dy="2" dx="0"></feOffset>
	<feGaussianBlur  stdDeviation="4.5" result="shadowBlurOuter1" in="shadowOffsetOuter1"></feGaussianBlur>
	
		<feColorMatrix  type="matrix" values="0 0 0 0 0   0 0 0 0 0   0 0 0 0 0  0 0 0 0.142974411 0" result="shadowMatrixOuter1" in="shadowBlurOuter1">
		</feColorMatrix>
	<feMerge>
		<feMergeNode  in="shadowMatrixOuter1"></feMergeNode>
		<feMergeNode  in="SourceGraphic"></feMergeNode>
	</feMerge>
</filter>
<title>logo</title>
<desc>Created with Sketch.</desc>
<g id="Mobile" transform="translate(-12.000000, -17.000000)">
	<g id="nav">
		<g id="logo" transform="translate(21.000000, 24.000000)" filter="url(#filter-1)">
			<circle id="Oval-2_1_" fill="#7CCDB9" cx="28" cy="28" r="28"/>
		</g>
	</g>
</g>
<g>
	<path fill="#FFFFFF" d="M39.396,21.641c0,0-9.261,11.729-9.261,16.845c0,5.115,4.147,9.262,9.261,9.262
		c5.116,0,9.263-4.146,9.263-9.262C48.658,33.37,39.396,21.641,39.396,21.641z"/>
	<path fill="#FFFFFF" d="M34.939,25.104c-1.524-2.216-2.81-3.851-2.81-3.851s-7.787,9.861-7.787,14.162
		c0,2.918,1.607,5.457,3.982,6.791c-0.22-0.873-0.35-1.781-0.35-2.721C27.974,35.638,32.055,29.186,34.939,25.104z"/>
</g>
</svg>
